<svg xmlns="http://www.w3.org/2000/svg" viewBox="0 0 64 64" x="0px" y="0px"><title>NY9W4DOGIF_router-5-signal</title><g><path d="M6,39a14.94,14.94,0,0,1,4.39-10.61A1,1,0,0,0,9,27,17,17,0,0,0,9,51a1,1,0,0,0,.71.29,1,1,0,0,0,.71-.29,1,1,0,0,0,0-1.42A14.94,14.94,0,0,1,6,39ZM32,16a1,1,0,1,0-1-1A1,1,0,0,0,32,16ZM10,39a10.9,10.9,0,0,1,3.22-7.78A1,1,0,1,0,11.8,29.8a13,13,0,0,0,0,18.4,1,1,0,0,0,1.42,0,1,1,0,0,0,0-1.42A10.9,10.9,0,0,1,10,39ZM32,20a1,1,0,1,0-1-1A1,1,0,0,0,32,20ZM16,32.63a1,1,0,0,0-1.41,0,9,9,0,0,0,0,12.72A1,1,0,0,0,16.05,44a7,7,0,0,1,0-9.92A1,1,0,0,0,16,32.63ZM32,48a1,1,0,0,0,1-1V35a1,1,0,0,0-2,0V47A1,1,0,0,0,32,48ZM52.2,29.8a1,1,0,1,0-1.42,1.42,11,11,0,0,1,0,15.56,1,1,0,0,0,0,1.42,1,1,0,0,0,1.42,0,13,13,0,0,0,0-18.4ZM55,27a1,1,0,0,0-1.42,1.42,15,15,0,0,1,0,21.22,1,1,0,0,0,0,1.42,1,1,0,0,0,.71.29A1,1,0,0,0,55,51,17,17,0,0,0,55,27Zm-5.66,5.67A1,1,0,0,0,48,34,7,7,0,0,1,48,44a1,1,0,0,0,0,1.41,1,1,0,0,0,1.41,0,9,9,0,0,0,0-12.72ZM41.74,58a4.88,4.88,0,0,1-2.42-.77A11,11,0,0,0,43,49V25a1,1,0,0,0-.55-.89L39,22.38V13a7,7,0,0,0-6-6.92V1a1,1,0,0,0-2,0V6.08A7,7,0,0,0,25,13v9.38l-3.45,1.73A1,1,0,0,0,21,25V49a11,11,0,0,0,3.89,8.38,3.19,3.19,0,0,1-1.84.58,3,3,0,0,0-2.44,1.6l-.07.13A3,3,0,0,0,23.19,64H41.47a3,3,0,0,0,.27-6ZM27,13a5,5,0,0,1,10,0V49a5,5,0,0,1-10,0ZM23,49V25.62l2-1V49a7,7,0,0,0,14,0V24.62l2,1V49a9,9,0,0,1-3.81,7.34l-.07,0,0,0a9,9,0,0,1-10.14,0,.1.1,0,0,0,0-.05l0,0A9,9,0,0,1,23,49ZM42.24,61.62a1,1,0,0,1-.77.38H23.19a1,1,0,0,1-.89-1.37l.08-.14a1,1,0,0,1,.83-.53,4.83,4.83,0,0,0,3.35-1.41,10.91,10.91,0,0,0,11.09-.13,6.49,6.49,0,0,0,3.91,1.52,1,1,0,0,1,.86.85A1,1,0,0,1,42.24,61.62ZM32,24a1,1,0,1,0-1-1A1,1,0,0,0,32,24Z"></path></g></svg>