<svg xmlns="http://www.w3.org/2000/svg" xmlns:xlink="http://www.w3.org/1999/xlink" version="1.1" x="0px" y="0px" viewBox="0 0 100 100" style="enable-background:new 0 0 100 100;" xml:space="preserve"><path d="M50,77.5c14.9,0,27-11.9,27.5-26.6C85.6,40.9,90,28.4,90,15.5v-8C90,6.1,88.9,5,87.5,5h-75C11.1,5,10,6.1,10,7.5v8  c0,12.9,4.4,25.4,12.5,35.4C23,65.6,35.1,77.5,50,77.5z M85,17.5c-0.4,9.2-3.2,18.2-8.2,26c-2.9-12-13.8-21-26.7-21  s-23.8,8.9-26.7,21c-5-7.7-7.9-16.7-8.2-26H85z M50,72.5c-12.4,0-22.5-10.1-22.5-22.5S37.6,27.5,50,27.5S72.5,37.6,72.5,50  S62.4,72.5,50,72.5z M85,10v5H15v-5H85z"></path><path d="M50,60c2.8,0,5-2.2,5-5s-2.2-5-5-5s-5,2.2-5,5S47.2,60,50,60z M52.5,55c0,1.4-1.1,2.5-2.5,2.5s-2.5-1.1-2.5-2.5  s1.1-2.5,2.5-2.5S52.5,53.6,52.5,55z"></path><path d="M50,40c-8.3,0-15,6.7-15,15s6.7,15,15,15s15-6.7,15-15S58.3,40,50,40z M50,67.5c-6.9,0-12.5-5.6-12.5-12.5  S43.1,42.5,50,42.5S62.5,48.1,62.5,55S56.9,67.5,50,67.5z"></path><circle cx="50" cy="63.8" r="1.9"></circle><circle cx="50" cy="46.3" r="1.9"></circle><circle cx="54.4" cy="62.6" r="1.9"></circle><circle cx="45.6" cy="47.4" r="1.9"></circle><circle cx="57.6" cy="59.4" r="1.9"></circle><circle cx="42.4" cy="50.6" r="1.9"></circle><circle cx="58.8" cy="55" r="1.9"></circle><circle cx="41.3" cy="55" r="1.9"></circle><circle cx="57.6" cy="50.6" r="1.9"></circle><circle cx="42.4" cy="59.4" r="1.9"></circle><circle cx="54.4" cy="47.4" r="1.9"></circle><circle cx="45.6" cy="62.6" r="1.9"></circle></svg>