<svg height='300px' width='300px'  fill="#000000" xmlns="http://www.w3.org/2000/svg" xmlns:xlink="http://www.w3.org/1999/xlink" version="1.1" x="0px" y="0px" viewBox="0 0 52 52" enable-background="new 0 0 52 52" xml:space="preserve"><circle cx="43.137" cy="29" r="1.411"></circle><path d="M47.762,9.875h-9.25c-1.932,0-3.5,1.567-3.5,3.5v25.25c0,1.934,1.568,3.5,3.5,3.5h9.25c1.934,0,3.5-1.566,3.5-3.5v-25.25  C51.262,11.442,49.695,9.875,47.762,9.875z M38.23,39.375h-0.813V37.25h0.813V39.375z M40.355,39.375h-0.813V37.25h0.813V39.375z   M42.48,39.375h-0.813V37.25h0.813V39.375z M44.605,39.375h-0.813V37.25h0.813V39.375z M43.137,36c-0.861,0-1.563-0.699-1.563-1.563  c0-0.862,0.701-1.563,1.563-1.563c0.863,0,1.563,0.7,1.563,1.563C44.699,35.301,44,36,43.137,36z M43.137,31.5  c-1.381,0-2.5-1.119-2.5-2.5c0-1.38,1.119-2.5,2.5-2.5s2.5,1.12,2.5,2.5C45.637,30.381,44.518,31.5,43.137,31.5z M46.73,39.375  h-0.813V37.25h0.813V39.375z M48.855,39.375h-0.813V37.25h0.813V39.375z M49.574,24.5H36.699v-2.25h12.875V24.5z M49.574,20.25  H36.699V18h12.875V20.25z M49.574,15.313H36.699v-1.688c0-1.104,0.896-2,2-2h8.875c1.105,0,2,0.896,2,2V15.313z"></path><path d="M29.738,13.439H3.488c-1.518,0-2.75,1.234-2.75,2.75V34.76c0,1.516,1.232,2.75,2.75,2.75h8.199v1.782h-0.408  c-0.783,0-1.416,0.634-1.416,1.417c0,0.782,0.633,1.416,1.416,1.416h10.666c0.783,0,1.418-0.634,1.418-1.416  c0-0.783-0.635-1.417-1.418-1.417h-0.406V37.51h8.199c1.516,0,2.75-1.234,2.75-2.75V16.189  C32.488,14.673,31.254,13.439,29.738,13.439z M28.154,36.292c-0.689,0-1.25-0.56-1.25-1.25s0.561-1.25,1.25-1.25  c0.691,0,1.25,0.56,1.25,1.25S28.846,36.292,28.154,36.292z M30.988,32.461H2.238V16.189c0-0.689,0.561-1.25,1.25-1.25h26.25  c0.689,0,1.25,0.561,1.25,1.25V32.461z"></path></svg>