<svg xmlns="http://www.w3.org/2000/svg" xmlns:xlink="http://www.w3.org/1999/xlink" version="1.1" x="0px" y="0px" viewBox="0 0 52 52" enable-background="new 0 0 52 52" xml:space="preserve"><g><polyline fill="none" stroke="#000000" stroke-width="2" stroke-miterlimit="10" points="28.9999428,33.0002098 28.9999428,3    48.9999428,3 48.9999428,49 30.7485447,49  "></polyline><line fill="none" stroke="#000000" stroke-width="2" stroke-miterlimit="10" x1="38.9999428" y1="31" x2="38.9999428" y2="3"></line><line fill="none" stroke="#000000" stroke-width="2" stroke-miterlimit="10" x1="38.9999428" y1="33" x2="38.9999428" y2="35"></line><path fill="none" stroke="#000000" stroke-width="2" stroke-miterlimit="10" d="M31.0000019,32.9999924H11.2739277   c-4.2608638,0-7.9813232,3.2153931-8.2565918,7.4674683c-0.3017578,4.6593628,3.3880618,8.5325317,7.982666,8.5325317   c2.637207,0,4.9736328-1.2775269,6.4296875-3.246582c0.7873535-1.0646973,1.9804688-1.753418,3.3046875-1.753418h0.3599854   c1.4093018,0,2.6870117,0.7172852,3.5400391,1.8391724c1.6541748,2.1756592,4.3953857,3.4787598,7.4166279,3.0936279   c3.5898438-0.4575195,6.4897461-3.4046631,6.8961182-7.0005493C39.4937782,37.0967941,35.7252235,32.9999924,31.0000019,32.9999924   z"></path><line fill="none" stroke="#000000" stroke-width="2" stroke-miterlimit="10" x1="16.9999428" y1="37" x2="18.9999428" y2="37"></line><line fill="none" stroke="#000000" stroke-width="2" stroke-miterlimit="10" x1="21.9999428" y1="37" x2="23.9999428" y2="37"></line><line fill="none" stroke="#000000" stroke-width="2" stroke-miterlimit="10" x1="30.9999428" y1="36" x2="30.9999428" y2="46"></line><line fill="none" stroke="#000000" stroke-width="2" stroke-miterlimit="10" x1="35.9999428" y1="41" x2="25.9999428" y2="41"></line><g><line fill="none" stroke="#000000" stroke-width="2" stroke-miterlimit="10" x1="10.9999437" y1="37" x2="10.9999437" y2="39"></line><line fill="none" stroke="#000000" stroke-width="2" stroke-miterlimit="10" x1="10.9999437" y1="43" x2="10.9999437" y2="45"></line></g><g><line fill="none" stroke="#000000" stroke-width="2" stroke-miterlimit="10" x1="14.9999437" y1="41" x2="12.9999437" y2="41"></line><line fill="none" stroke="#000000" stroke-width="2" stroke-miterlimit="10" x1="8.9999437" y1="41" x2="6.9999437" y2="41"></line></g></g></svg>