<svg height='300px' width='300px'  fill="#000000" xmlns="http://www.w3.org/2000/svg" xmlns:xlink="http://www.w3.org/1999/xlink" version="1.1" x="0px" y="0px" viewBox="0 0 256 256" style="enable-background:new 0 0 256 256;" xml:space="preserve"><g><path d="M219.1,60.2h-3.6c-0.4,0-0.6,0.3-0.6,0.6v0.4c0,0.4,0.3,0.6,0.6,0.6h3.6c0.4,0,0.6-0.3,0.6-0.6v-0.4   C219.8,60.4,219.5,60.2,219.1,60.2z"></path><path d="M184.5,139.4l-26.3-26.1c-1.7-1.7-4-2.6-6.4-2.6H49.2c-2.4,0-4.7,0.9-6.4,2.6l-26.3,26.1c-0.9,0.9-1.6,2-2.1,3.1   c-0.4,0.4-0.6,0.9-0.6,1.5v1.5c0,0.2,0,0.4,0,0.6v42.8c0,6.5,5.3,11.9,11.9,11.9h149.7c6.5,0,11.9-5.3,11.9-11.9v-42.8   c0-0.2,0-0.4,0-0.6V144c0-0.6-0.2-1.1-0.6-1.5C186.1,141.4,185.5,140.3,184.5,139.4z M17.9,145.5c0-0.1,0-0.2,0-0.3   c0-0.1,0-0.2,0-0.2c0-0.1,0-0.2,0.1-0.3c0.2-0.8,0.6-1.6,1.3-2.3l26.3-26.1c0.9-0.9,2.2-1.4,3.5-1.4h102.6c1.3,0,2.6,0.5,3.5,1.4   l26.3,26.1c0.7,0.7,1.1,1.5,1.3,2.3c0,0.1,0.1,0.2,0.1,0.3c0,0.1,0,0.2,0,0.2c0,0.1,0,0.2,0,0.3c0,0.1,0,0.2,0,0.2   c0,0.1,0,0.2,0,0.3c0,0.1,0,0.2,0,0.3c0,0.1,0,0.2,0,0.3c0,0.1,0,0.1,0,0.2c0,0.1-0.1,0.3-0.1,0.4c0,0,0,0.1,0,0.1   c-0.1,0.2-0.1,0.3-0.2,0.5c0,0,0,0,0,0.1c-0.1,0.1-0.1,0.3-0.2,0.4c0,0-0.1,0.1-0.1,0.1c-0.1,0.1-0.1,0.2-0.2,0.3   c-0.1,0.1-0.1,0.1-0.2,0.2c0,0-0.1,0.1-0.1,0.1c-0.1,0.1-0.3,0.3-0.4,0.4c0,0,0,0,0,0c-0.1,0.1-0.2,0.1-0.3,0.2c0,0,0,0-0.1,0   c-0.1,0.1-0.3,0.2-0.4,0.3c-0.1,0-0.1,0.1-0.2,0.1c-0.1,0-0.1,0.1-0.2,0.1c-0.1,0-0.2,0.1-0.3,0.1c0,0-0.1,0-0.1,0   c-0.2,0.1-0.3,0.1-0.5,0.1c0,0-0.1,0-0.1,0c-0.1,0-0.3,0-0.4,0.1c0,0-0.1,0-0.1,0c-0.2,0-0.4,0-0.5,0H22.9c-0.2,0-0.4,0-0.5,0   c0,0-0.1,0-0.1,0c-0.1,0-0.3,0-0.4-0.1c0,0-0.1,0-0.1,0c-0.2,0-0.3-0.1-0.5-0.1c0,0-0.1,0-0.1,0c-0.1,0-0.2-0.1-0.3-0.1   c-0.1,0-0.1-0.1-0.2-0.1c-0.1,0-0.1-0.1-0.2-0.1c-0.2-0.1-0.3-0.2-0.4-0.3c0,0,0,0-0.1,0c-0.1-0.1-0.2-0.1-0.3-0.2c0,0,0,0,0,0   c-0.1-0.1-0.3-0.3-0.4-0.4c0,0-0.1-0.1-0.1-0.1c-0.1-0.1-0.1-0.1-0.2-0.2c-0.1-0.1-0.2-0.2-0.2-0.3c0,0-0.1-0.1-0.1-0.1   c-0.1-0.1-0.2-0.3-0.2-0.4c0,0,0,0,0-0.1c-0.1-0.2-0.1-0.3-0.2-0.5c0,0,0-0.1,0-0.1c0-0.1-0.1-0.3-0.1-0.4c0-0.1,0-0.1,0-0.2   c0-0.1,0-0.2,0-0.3c0-0.1,0-0.2,0-0.3c0-0.1,0-0.2,0-0.3C17.9,145.7,17.9,145.6,17.9,145.5z M183.1,188.9c0,4.3-3.5,7.7-7.7,7.7   H25.7c-4.3,0-7.7-3.5-7.7-7.7v-35.4c1.3,0.8,2.7,1.3,4.3,1.4c0.2,0,0.4,0,0.7,0h155.2c0.2,0,0.5,0,0.7,0c1.6-0.1,3-0.6,4.3-1.4   V188.9z"></path><ellipse cx="100.5" cy="129.1" rx="13.3" ry="5.7"></ellipse><path d="M225.5,53.3h-16.4c-9.2,0-16.7,7.5-16.7,16.7v43.1v71c0,9.2,7.5,16.7,16.7,16.7h16.4c9.2,0,16.7-7.5,16.7-16.7v-71V70   C242.2,60.8,234.7,53.3,225.5,53.3z M238.1,184.1c0,6.9-5.6,12.6-12.6,12.6h-16.4c-6.9,0-12.6-5.6-12.6-12.6v-68.9h41.5V184.1z    M238.1,111h-41.5V70c0-6.9,5.6-12.6,12.6-12.6h16.4c6.9,0,12.6,5.6,12.6,12.6V111z"></path><circle cx="227.6" cy="102.1" r="6.4"></circle><circle cx="207.6" cy="124.1" r="6.4"></circle><circle cx="207.6" cy="144.2" r="6.4"></circle><path d="M207.6,95.1c-3.9,0-7,3.2-7,7c0,3.9,3.2,7,7,7c3.9,0,7-3.2,7-7C214.6,98.2,211.5,95.1,207.6,95.1z M207.6,107.9   c-3.2,0-5.8-2.6-5.8-5.8c0-3.2,2.6-5.8,5.8-5.8c3.2,0,5.8,2.6,5.8,5.8C213.4,105.3,210.8,107.9,207.6,107.9z"></path><path d="M226,150.6h3.3c2.6,0,4.8-2.1,4.8-4.8v-23.4c0-2.6-2.1-4.8-4.8-4.8H226c-2.6,0-4.8,2.1-4.8,4.8v23.4   C221.2,148.5,223.4,150.6,226,150.6z"></path></g></svg>