<svg xmlns="http://www.w3.org/2000/svg" xmlns:xlink="http://www.w3.org/1999/xlink" viewBox="0 0 22 24" version="1.1" x="0px" y="0px"><title>11 - Multifunctional (Outline)</title><desc>Created with Sketch.</desc><g stroke="none" stroke-width="1" fill="none" fill-rule="evenodd"><g fill="#000000"><path d="M2,22 L2,10.258 C2,9.01028475 3.01028475,8 4.258,8 L17.742,8 C18.9897153,8 20,9.01028475 20,10.258 L20,22 L2,22 Z M21,24 C21.5522847,24 22,23.5522847 22,23 L22,10.258 C22,7.90571525 20.0942847,6 17.742,6 L4.258,6 C1.90571525,6 0,7.90571525 0,10.258 L0,23 C0,23.5522847 0.44771525,24 1,24 L21,24 Z"></path><path d="M5.35112344,7.93632918 L21.3511234,1.93632918 C21.8682438,1.74240906 22.1302493,1.16599688 21.9363292,0.648876558 C21.7424091,0.131756233 21.1659969,-0.1302493 20.6488766,0.0636708224 L4.64887656,6.06367082 C4.13175623,6.25759094 3.8697507,6.83400312 4.06367082,7.35112344 C4.25759094,7.86824377 4.83400312,8.1302493 5.35112344,7.93632918 Z"></path><path d="M8,22 L8,18.811 C8,18.3632847 8.36328475,18 8.811,18 L13.189,18 C13.6367153,18 14,18.3632847 14,18.811 L14,22 L8,22 Z M15,24 C15.5522847,24 16,23.5522847 16,23 L16,18.811 C16,17.2587153 14.7412847,16 13.189,16 L8.811,16 C7.25871525,16 6,17.2587153 6,18.811 L6,23 C6,23.5522847 6.44771525,24 7,24 L15,24 Z"></path><path d="M1,13 L21,13 C21.5522847,13 22,12.5522847 22,12 C22,11.4477153 21.5522847,11 21,11 L1,11 C0.44771525,11 0,11.4477153 0,12 C0,12.5522847 0.44771525,13 1,13 Z"></path></g></g></svg>