<svg xmlns="http://www.w3.org/2000/svg" xmlns:xlink="http://www.w3.org/1999/xlink" version="1.1" x="0px" y="0px" viewBox="0 0 100 100" enable-background="new 0 0 100 100" xml:space="preserve"><path d="M74.119,25.112v-7.616c0-4.901-4.01-8.91-8.911-8.91H34.791c-4.901,0-8.91,4.01-8.91,8.91v65.007  c0,4.901,4.01,8.91,8.91,8.91h30.417c4.901,0,8.91-4.01,8.91-8.91V64.375l0,0V25.112L74.119,25.112z M53.828,87.667h-8.579  c-1.273,0-2.305-1.032-2.305-2.305s1.032-2.305,2.305-2.305h8.579c1.273,0,2.305,1.032,2.305,2.305S55.101,87.667,53.828,87.667z   M69.391,76.999c0,1.258-1.029,2.287-2.288,2.287H32.896c-1.258,0-2.287-1.03-2.287-2.287V23.001c0-1.258,1.03-2.287,2.287-2.287  h34.207c1.258,0,2.288,1.03,2.288,2.287v0.398v1.712v39.197v4.545V76.999z M57.365,46.094c-0.647,2.288-1.236,2.414-1.59,2.173  c-0.438,2.465-1.764,5.64-6.039,5.807c-4.342-0.333-5.718-3.584-6.105-6.088c-0.347-0.028-0.806-0.517-1.299-2.258  c-0.674-2.384,0.042-2.736,0.648-2.679c-0.446-1.252-0.455-2.484-0.156-3.623c0.314-1.342,1.039-2.417,1.852-3.248  c0.514-0.546,1.096-1.025,1.713-1.416c0.502-0.349,1.058-0.648,1.665-0.853l0.001,0l0,0c0.474-0.16,0.979-0.263,1.513-0.289  c1.651-0.143,2.902,0.27,3.801,0.803c1.341,0.74,1.85,1.72,1.85,1.72s3.375,0.237,1.897,7.312l0,0  C57.571,43.611,57.891,44.234,57.365,46.094z M35.352,60.381c0.084-1.61,0.628-3.654,2.761-4.196  c3.657-0.93,6.628-3.022,6.628-3.022l2.754,8.708l0.377,1.181l1.234-3.495c-3.091-4.313,0.819-4.145,0.819-4.145  s3.91-0.168,0.819,4.145l1.222,3.468l0.381-1.17l0.007,0.019l0.437-1.38l2.318-7.332c0,0,2.971,2.092,6.628,3.022  c2.133,0.542,2.677,2.586,2.761,4.196c-3.732,3.725-8.883,6.028-14.572,6.028C44.235,66.409,39.084,64.106,35.352,60.381z"></path></svg>