<svg xmlns="http://www.w3.org/2000/svg" xmlns:xlink="http://www.w3.org/1999/xlink" version="1.1" x="0px" y="0px" viewBox="0 0 74 141.354" enable-background="new 0 0 74 141.354" xml:space="preserve"><path d="M60.975,1.956H13.184c-5.583,0-10.125,4.261-10.125,9.498v118.4c0,5.237,4.542,9.498,10.125,9.498h47.791  c5.584,0,10.127-4.261,10.358-9.498v-118.4C71.102,6.217,66.559,1.956,60.975,1.956z M27.637,8.898h19.167  c0.691,0,1.25,0.561,1.25,1.25c0,0.69-0.559,1.25-1.25,1.25H27.637c-0.689,0-1.25-0.56-1.25-1.25  C26.387,9.458,26.947,8.898,27.637,8.898z M37.375,135.261c-3.061,0-5.542-2.481-5.542-5.542c0-3.062,2.481-5.542,5.542-5.542  c3.061,0,5.542,2.48,5.542,5.542C42.917,132.78,40.436,135.261,37.375,135.261z M65.219,119.933l-56.011,0.07L9.18,18.552  c0,0,0.017-0.014,0.057-0.014l56.011-0.071L65.219,119.933z"></path><circle cx="37.269" cy="33.333" r="6.746"></circle><path d="M42.966,43.737c-3.502-2.095-7.513-2.097-11.005-0.007c-7.123,4.263-10.942,16.011-10.218,31.426  c0.069,1.473,1.318,2.61,2.791,2.542c1.472-0.069,2.609-1.32,2.54-2.791c-0.336-7.167,0.365-13.52,2.028-18.374  c0.202-0.588,0.418-1.152,0.646-1.694v22.665h0.025v33.607c0,1.787,1.448,3.233,3.234,3.233c1.787,0,3.234-1.446,3.234-3.233V77.503  h2.379v33.633c0,1.785,1.449,3.233,3.233,3.233c1.787,0,3.236-1.448,3.236-3.233V77.503h0.021V54.609  c0.273,0.622,0.531,1.277,0.769,1.965c1.678,4.858,2.392,11.198,2.059,18.333c-0.069,1.473,1.068,2.721,2.539,2.79  c0.044,0.002,0.085,0.003,0.127,0.003c1.416,0,2.596-1.114,2.663-2.544C53.986,59.772,50.137,48.025,42.966,43.737z"></path></svg>