<svg xmlns="http://www.w3.org/2000/svg" xmlns:xlink="http://www.w3.org/1999/xlink" version="1.1" x="0px" y="0px" viewBox="0 0 74 141.354" enable-background="new 0 0 74 141.354" xml:space="preserve"><path d="M55.506,35.544H19.399c-4.218,0-7.65,3.219-7.65,7.176v89.457c0,3.957,3.432,7.176,7.65,7.176h36.107  c4.219,0,7.651-3.219,7.826-7.176V42.72C63.157,38.763,59.725,35.544,55.506,35.544z M30.319,40.789l14.481,0  c0.521,0,0.944,0.424,0.944,0.945c0,0.521-0.423,0.944-0.944,0.944l-14.481,0c-0.521,0-0.945-0.423-0.945-0.944  S29.797,40.789,30.319,40.789z M37.677,136.261c-2.313,0-4.188-1.875-4.188-4.188s1.875-4.187,4.188-4.187  c2.312,0,4.186,1.874,4.186,4.187S39.988,136.261,37.677,136.261z M58.713,124.68l-42.318,0.054l-0.021-76.65  c0,0,0.013-0.011,0.043-0.011l42.318-0.054L58.713,124.68z"></path><path d="M58.762,10.694c3.8,2.894,0.146,7.135-3.364,4.133c-3.729-3.188-7.361-5.698-12.207-6.924  c-4.814-1.216-9.886-1.039-14.6,0.528c-2.236,0.743-4.36,1.785-6.312,3.107c-1.758,1.19-3.496,3.504-5.791,3.504  c-1.395,0-2.634-0.808-2.689-2.294c-0.081-2.003,2.792-3.704,4.183-4.713c4.006-2.907,8.722-4.776,13.595-5.592  C41.324,0.809,51.668,3.731,58.762,10.694C59.87,11.537,55.809,7.795,58.762,10.694z M53.147,18.444  c1.707,1.707,2.219,5.416-1.228,5.102c-1.405-0.128-2.346-1.165-3.361-2.017c-1.425-1.195-3.043-2.152-4.785-2.809  c-3.31-1.245-6.936-1.489-10.374-0.636c-1.59,0.394-3.13,0.999-4.543,1.83c-1.628,0.957-2.958,2.749-4.701,3.424  c-3.132,1.214-4.605-2.084-2.588-4.271c2.638-2.863,6.597-4.923,10.311-5.946C39.452,11.036,47.234,13.54,53.147,18.444  C54.095,19.392,50.668,16.388,53.147,18.444z M46.662,26.511c1.304,1.144,2.104,3.353,0.305,4.537  c-1.886,1.241-3.935-1.669-5.646-2.323c-2.133-0.818-4.476-0.929-6.68-0.312c-1.702,0.478-4.293,3.265-5.895,2.882  c-1.893-0.447-2.339-2.607-1.261-4.05c1.405-1.88,3.852-3.019,6.057-3.604C37.925,22.48,43.396,23.094,46.662,26.511  C47.505,27.25,45.554,25.353,46.662,26.511z"></path><path d="M37.251,65.701c-7.238,0-13.105,5.868-13.105,13.104c0,10.943,13.058,30.408,13.105,30.406  c0.055-0.002,13.104-19.636,13.104-30.407C50.354,71.57,44.487,65.701,37.251,65.701z M37.319,86.151  c-4.07,0-7.366-3.298-7.366-7.366c0-4.067,3.296-7.365,7.366-7.365c4.066,0,7.365,3.296,7.365,7.364  C44.685,82.853,41.386,86.15,37.319,86.151z"></path></svg>