<svg xmlns="http://www.w3.org/2000/svg" xmlns:xlink="http://www.w3.org/1999/xlink" version="1.1" x="0px" y="0px" viewBox="0 0 100 100" enable-background="new 0 0 100 100" xml:space="preserve"><path d="M74.119,25.112v-7.616c0-4.901-4.01-8.91-8.911-8.91H34.791c-4.901,0-8.91,4.01-8.91,8.91v65.007  c0,4.901,4.01,8.91,8.91,8.91h30.417c4.901,0,8.91-4.01,8.91-8.91V64.375l0,0V25.112L74.119,25.112z M53.828,87.667h-8.579  c-1.273,0-2.305-1.032-2.305-2.305s1.032-2.305,2.305-2.305h8.579c1.273,0,2.305,1.032,2.305,2.305S55.101,87.667,53.828,87.667z   M69.391,76.999c0,1.258-1.029,2.287-2.288,2.287H32.896c-1.258,0-2.287-1.03-2.287-2.287V23.001c0-1.258,1.03-2.287,2.287-2.287  h34.207c1.258,0,2.288,1.03,2.288,2.287v0.398v1.712v39.197v4.545V76.999z M48.314,63.978l1.661,2.431  c-5.025-0.024-9.642-1.768-13.294-4.675v-2.291c0,0,0.097-1.878,1.934-2.742c1.837-0.864,2.771-1.037,2.836-1.071  c0.064-0.035,2.481-0.599,3.341-1.452l-2.224,5.541l2.578-0.38L48.314,63.978z M63.319,59.444v2.291  c-3.652,2.907-8.269,4.651-13.294,4.675l1.661-2.431l3.169-4.638l2.578,0.38l-2.224-5.541c0.859,0.853,3.276,1.417,3.341,1.452  c0.064,0.035,0.999,0.207,2.836,1.071C63.222,57.566,63.319,59.444,63.319,59.444z M53.76,54.34l-3.737,12.069h-0.047L46.503,54.34  v-2.153c-4.784,0.042-6.193-2.008-6.193-2.008s2.734-0.042,2.564-7.257c-0.169-7.215,3.157-8.406,4.397-8.878  c3.611-1.373,5.425,0.81,5.425,0.81c4.185-0.387,5.34,4.185,4.826,9.392c-0.514,5.207,2.346,6.017,2.346,6.017  c-1.965,2.008-6.108,1.881-6.108,1.881V54.34z"></path></svg>