<svg xmlns="http://www.w3.org/2000/svg" viewBox="0 0 64 64" x="0px" y="0px"><title>NY9W4DOGIF_router-5</title><g><path d="M32,20a1,1,0,1,0-1-1A1,1,0,0,0,32,20Zm0,4a1,1,0,1,0-1-1A1,1,0,0,0,32,24Zm0-8a1,1,0,1,0-1-1A1,1,0,0,0,32,16Zm0,32a1,1,0,0,0,1-1V35a1,1,0,0,0-2,0V47A1,1,0,0,0,32,48ZM44.34,60.22A3,3,0,0,0,41.74,58a4.88,4.88,0,0,1-2.42-.77A11,11,0,0,0,43,49V25a1,1,0,0,0-.55-.89L39,22.38V13a7,7,0,0,0-6-6.92V1a1,1,0,0,0-2,0V6.08A7,7,0,0,0,25,13v9.38l-3.45,1.73A1,1,0,0,0,21,25V49a11,11,0,0,0,3.89,8.38,3.19,3.19,0,0,1-1.84.58,3,3,0,0,0-2.44,1.61l-.07.12A3,3,0,0,0,23.19,64H41.47a3,3,0,0,0,2.87-3.78ZM27,13a5,5,0,0,1,10,0V49a5,5,0,0,1-10,0ZM23,49V25.62l2-1V49a7,7,0,0,0,14,0V24.62l2,1V49a9,9,0,0,1-3.81,7.34l-.07,0,0,0a9,9,0,0,1-10.13,0s0,0-.05-.05l0,0A9,9,0,0,1,23,49ZM42.24,61.62a1,1,0,0,1-.77.38H23.19a.93.93,0,0,1-.82-.46.94.94,0,0,1-.07-.92l.08-.13a1,1,0,0,1,.83-.53,4.83,4.83,0,0,0,3.35-1.41,10.91,10.91,0,0,0,11.09-.13,6.49,6.49,0,0,0,3.91,1.52,1,1,0,0,1,.86.85A1,1,0,0,1,42.24,61.62Z"></path></g></svg>