<svg xmlns="http://www.w3.org/2000/svg" xmlns:xlink="http://www.w3.org/1999/xlink" version="1.1" x="0px" y="0px" viewBox="0 0 100 100" enable-background="new 0 0 100 100" xml:space="preserve"><path d="M54.456,38.454c-0.731-0.389-1.641-0.11-2.029,0.62c-0.389,0.731-0.111,1.64,0.621,2.028  c4.751,2.527,7.703,7.437,7.703,12.813c0,7.995-6.505,14.5-14.5,14.5s-14.5-6.505-14.5-14.5c0-5.391,2.963-10.306,7.732-12.827  c0.732-0.388,1.012-1.295,0.625-2.027c-0.388-0.732-1.295-1.012-2.027-0.625c-5.755,3.043-9.33,8.974-9.33,15.479  c0,9.649,7.851,17.5,17.5,17.5s17.5-7.851,17.5-17.5C63.751,47.427,60.189,41.503,54.456,38.454z"></path><path d="M46.251,55.115c0.828,0,1.5-0.672,1.5-1.5v-20c0-0.828-0.672-1.5-1.5-1.5s-1.5,0.672-1.5,1.5v20  C44.751,54.443,45.423,55.115,46.251,55.115z"></path><path d="M79.474,30.146c0.15,0.047,0.303,0.069,0.452,0.069c0.638,0,1.229-0.409,1.431-1.049c1.024-3.25,0.164-6.763-2.244-9.167  c-2.478-2.469-6.073-3.29-9.384-2.143c-0.783,0.271-1.198,1.125-0.927,1.908c0.271,0.782,1.126,1.198,1.908,0.926  c2.219-0.77,4.626-0.219,6.283,1.433c1.613,1.609,2.188,3.963,1.502,6.141C78.245,29.055,78.685,29.897,79.474,30.146z"></path><path d="M84.744,14.349c-3.859-3.847-9.38-5.62-14.767-4.743c-0.817,0.133-1.372,0.903-1.239,1.722  c0.133,0.817,0.905,1.375,1.722,1.239c4.439-0.724,8.987,0.738,12.166,3.907c3.186,3.176,4.634,7.555,3.972,12.011  c-0.122,0.82,0.444,1.583,1.264,1.704c0.075,0.012,0.149,0.017,0.222,0.017c0.731,0,1.371-0.535,1.482-1.279  C90.356,23.597,88.554,18.147,84.744,14.349z"></path><path d="M75.312,29.114c0-3.036-2.463-5.501-5.501-5.501c-1.283,0-2.461,0.443-3.396,1.181c-5.753-3.898-12.69-6.179-20.163-6.179  c-19.882,0-36,16.118-36,36s16.118,36,36,36c19.883,0,36-16.118,36-36c0-8.492-2.947-16.291-7.867-22.446  C74.969,31.295,75.312,30.244,75.312,29.114z M69.812,26.613c1.378,0,2.5,1.122,2.5,2.5c0,1.38-1.123,2.502-2.5,2.502  c-1.379,0-2.5-1.123-2.5-2.501S68.433,26.614,69.812,26.613z M46.251,87.615c-18.196,0-33-14.804-33-33s14.804-33,33-33  c6.807,0,13.136,2.076,18.396,5.622c-0.214,0.586-0.335,1.217-0.335,1.877c0,3.038,2.461,5.5,5.499,5.501  c0.812,0,1.579-0.18,2.272-0.496c4.48,5.635,7.168,12.755,7.168,20.496C79.251,72.812,64.447,87.615,46.251,87.615z"></path></svg>