<svg xmlns="http://www.w3.org/2000/svg" viewBox="0 0 64 64" x="0px" y="0px"><title>Hub Switch</title><g data-name="Hub Switch"><path d="M59,18H5a3,3,0,0,0-3,3V39a3,3,0,0,0,3,3H8.219l.811,3.242A1,1,0,0,0,10,46h4a1,1,0,0,0,.97-.758L15.781,42H48.219l.811,3.242A1,1,0,0,0,50,46h4a1,1,0,0,0,.97-.758L55.781,42H59a3,3,0,0,0,3-3V21A3,3,0,0,0,59,18ZM13.219,44H10.781l-.5-2h3.438Zm40,0H50.781l-.5-2h3.438ZM60,39a1,1,0,0,1-1,1H5a1,1,0,0,1-1-1V21a1,1,0,0,1,1-1H59a1,1,0,0,1,1,1Z"></path><rect x="54" y="22" width="4" height="2"></rect><path d="M56,25a3,3,0,1,0,3,3A3,3,0,0,0,56,25Zm0,4a1,1,0,1,1,1-1A1,1,0,0,1,56,29Z"></path><path d="M13,28H7a1,1,0,0,0-1,1v6a1,1,0,0,0,1,1h6a1,1,0,0,0,1-1V29A1,1,0,0,0,13,28Zm-1,6H8V30h4Z"></path><path d="M22,28H16a1,1,0,0,0-1,1v6a1,1,0,0,0,1,1h6a1,1,0,0,0,1-1V29A1,1,0,0,0,22,28Zm-1,6H17V30h4Z"></path><path d="M31,28H25a1,1,0,0,0-1,1v6a1,1,0,0,0,1,1h6a1,1,0,0,0,1-1V29A1,1,0,0,0,31,28Zm-1,6H26V30h4Z"></path><path d="M40,28H34a1,1,0,0,0-1,1v6a1,1,0,0,0,1,1h6a1,1,0,0,0,1-1V29A1,1,0,0,0,40,28Zm-1,6H35V30h4Z"></path><path d="M49,28H43a1,1,0,0,0-1,1v6a1,1,0,0,0,1,1h6a1,1,0,0,0,1-1V29A1,1,0,0,0,49,28Zm-1,6H44V30h4Z"></path></g></svg>