<svg xmlns="http://www.w3.org/2000/svg" xmlns:xlink="http://www.w3.org/1999/xlink" version="1.1" x="0px" y="0px" viewBox="0 0 100 100" style="enable-background:new 0 0 100 100;" xml:space="preserve"><path d="M9.5,91.2H4.7c-1.8,0-3.3-1.5-3.3-3.3V12.1c0-1.8,1.5-3.3,3.3-3.3h4.8v2.7H4.7c-0.4,0-0.7,0.3-0.7,0.7v75.7  c0,0.4,0.3,0.7,0.7,0.7h4.8V91.2z"></path><path d="M95.3,91.2H43.1v-2.7h52.2c0.4,0,0.7-0.3,0.7-0.7V12.1c0-0.4-0.3-0.7-0.7-0.7H43.1V8.8h52.2c1.8,0,3.3,1.5,3.3,3.3v75.7  C98.7,89.7,97.2,91.2,95.3,91.2z"></path><path d="M41.1,98.5H12c-1.8,0-3.3-1.5-3.3-3.3V4.9c0-1.8,1.5-3.3,3.3-3.3h29.1c1.8,0,3.3,1.5,3.3,3.3v90.2  C44.4,97,42.9,98.5,41.1,98.5z M12,4.2c-0.4,0-0.7,0.3-0.7,0.7v90.2c0,0.4,0.3,0.7,0.7,0.7h29.1c0.4,0,0.7-0.3,0.7-0.7V4.9  c0-0.4-0.3-0.7-0.7-0.7C41.1,4.2,12,4.2,12,4.2z"></path><path d="M61,52.8h-9.1v-9.1H61V52.8z M53.2,51.4h6.4V45h-6.4V51.4z"></path><path d="M86.1,34.4H53.5c-0.9,0-1.7-0.7-1.7-1.7v-8.1c0-0.9,0.7-1.7,1.7-1.7H86c0.9,0,1.7,0.7,1.7,1.7v8.1  C87.7,33.7,87,34.4,86.1,34.4z M53.5,24.3c-0.2,0-0.3,0.1-0.3,0.3v8.1c0,0.2,0.1,0.3,0.3,0.3H86c0.2,0,0.3-0.1,0.3-0.3v-8.1  c0-0.2-0.1-0.3-0.3-0.3C86,24.3,53.5,24.3,53.5,24.3z"></path><path d="M74.3,52.8h-9.1v-9.1h9.1V52.8z M66.6,51.4H73V45h-6.4V51.4z"></path><path d="M87.7,52.8h-9.1v-9.1h9.1V52.8z M80,51.4h6.4V45H80V51.4z"></path><path d="M61,66.1h-9.1V57H61V66.1z M53.2,64.8h6.4v-6.4h-6.4V64.8z"></path><path d="M74.3,66.1h-9.1V57h9.1V66.1z M66.6,64.8H73v-6.4h-6.4V64.8z"></path><path d="M87.7,66.1h-9.1V57h9.1V66.1z M80,64.8h6.4v-6.4H80V64.8z"></path><path d="M74.3,79.5h-9.1v-9.1h9.1V79.5z M66.6,78.2H73v-6.4h-6.4V78.2z"></path></svg>