<svg xmlns="http://www.w3.org/2000/svg" xmlns:xlink="http://www.w3.org/1999/xlink" version="1.1" x="0px" y="0px" viewBox="0 0 100 100" style="enable-background:new 0 0 100 100;" xml:space="preserve"><style type="text/css">
	.st0{fill:#0D0E0F;}
	.st1{fill:none;stroke:#0D0E0F;stroke-linejoin:round;stroke-miterlimit:10;}
	.st2{fill:none;stroke:#0D0E0F;stroke-width:0.5;stroke-linejoin:round;stroke-miterlimit:10;}
	.st3{fill:none;stroke:#000000;stroke-linecap:round;stroke-linejoin:round;stroke-miterlimit:10;}
	.st4{fill:none;stroke:#000000;stroke-width:0.5;stroke-linecap:round;stroke-linejoin:round;stroke-miterlimit:10;}
	.st5{fill:none;stroke:#000000;stroke-linejoin:round;stroke-miterlimit:10;}
	.st6{fill:none;stroke:#000000;stroke-width:0.5;stroke-linejoin:round;stroke-miterlimit:10;}
	.st7{fill:none;stroke:#000000;stroke-width:0.5;stroke-miterlimit:10;}
	.st8{fill:none;stroke:#000000;stroke-miterlimit:10;}
	.st9{fill:none;stroke:#0D0E0F;stroke-miterlimit:10;}
	.st10{fill:none;stroke:#0D0E0F;stroke-width:0.5;stroke-miterlimit:10;}
	.st11{fill:none;stroke:#000000;stroke-width:0.5;stroke-linecap:round;stroke-miterlimit:10;}
	.st12{fill:none;stroke:#000000;stroke-linecap:round;stroke-miterlimit:10;}
</style><g><path d="M92.2822266,9.652832c-0.3457031,0-0.9833984,0.1884766-2.2548828,0.5878906   c-0.9082031,0.284668-1.5634766,0.4902344-1.6191406,1.1650391c-0.0236816,0.2778931-1.5014648,45.4787598-1.755188,53.2259521   l-4.4606323-1.1429443l-0.8457031-1.5131836c-0.0683594-0.121582-0.1835938-0.2089844-0.3193359-0.2416992   c-0.1162109-0.0283203-11.7158203-2.8183594-19.6074219-3.8837891l-0.8603516,0.0063477l-0.9335938-0.1450195l-1.1054688-0.328125   c-0.1053467-0.0123291-10.2756348-1.2417603-15.7150269-1.6209717c-0.0862427-4.906189-0.8425903-48.1193237-0.8425903-48.6368408   c0-0.8227539-0.7363281-1.2607422-1.2685547-1.2607422c-0.2158203,0-0.7255859,0.1123047-1.9238281,0.387207l-0.7265625,0.1660156   C37.1328125,6.6225586,36.53125,6.7583008,36.53125,7.3920898c0,0.1635742,0.111084,44.6109619,0.1229858,49.3751831   c-1.1004639-0.0071411-1.9174805-0.0500488-2.5165405-0.0836792c-0.3486328-0.019043-0.6142578-0.0336914-0.8076172-0.0336914   c-0.5908203,0-0.9140625,0.1445313-1.3603516,0.3452148l-0.1523438,0.0678711   c-0.5195313,0.2299805-6.9179688,3.0390625-7.4013672,3.2504883c-0.6210938,0.277832-0.7666016,0.5375977-1.0263672,1.3676758   l-0.890625,0.2768555c-0.5585938,0.2319336-1.0283203,0.515625-1.6455078,1.2138672   c-0.4140625,0.4755859-9.6425781,10.1523438-14.4648438,15.2026367C6.2998047,78.4672852,6.25,78.5913086,6.25,78.7197266v0.5   c0,0.1972656,0.1162109,0.3759766,0.2958984,0.456543c1.9580078,0.8764648,7.1415806,3.2060547,7.5917969,3.4511719   c0.6318359,0.3491211,0.8037109,0.3891602,2.1816406,0.644043c1.5820313,0.2929688,50.9003906,10.1850586,51.1982422,10.2475586   c0.3710938,0.0776367,0.7197266,0.1162109,1.0498047,0.1162109c0.5478516,0,1.0410156-0.1069336,1.4902344-0.3208008   c0.5947266-0.2724609,2.1132813-0.8745117,2.6523438-1.0610352c0.6328125-0.2143555,1.0576172-0.4667969,1.828125-0.9882813   c0.2841797-0.1904297,2.1367188-1.4541016,4.390625-2.9916992c3.671875-2.5048828,8.7011719-5.9355469,9.2050781-6.2651367   c0.8544922-0.559082,1.1953125-1.7539063,1.0791016-2.699707c1.0683594-0.7255859,1.6767578-1.1015625,1.7822266-1.1572266   c0.3574219-0.1704102,1.2851563-0.9194336,1.2851563-2.3212891c0-1.2158203-0.2519531-4.4042969-0.2626953-4.5395508   c-0.0029297-0.0473633-0.0136719-0.09375-0.03125-0.1381836l-0.4959106-1.3021851   c0.2606201,0.0761719,0.3496094,0.0790405,0.392395,0.0790405c0.4365234,0,1.0410156-0.3535156,1.0410156-1.0170898   c0.0009766-0.1894531,0.1494141-10.0874023,0.3212891-21.5483398c0.2578125-17.112793,0.5488281-36.5087891,0.5488281-36.9345703   C93.7939453,10.1420898,93.2148438,9.652832,92.2822266,9.652832z M90.6437988,68.8300171l-0.9066162-2.3752441   c0.2545166,0.1099243,0.5362549,0.2903442,0.7130127,0.59552C90.7566528,67.5797729,90.7731323,68.3254395,90.6437988,68.8300171z    M90.2526855,69.2072144c-0.0263672,0.0326538-0.0506592,0.0673218-0.0686646,0.1071777   c-0.0001831,0.0004272-0.0005493,0.0007324-0.0007324,0.0010986c-0.003479,0.0078125-0.0102539,0.0128784-0.0133667,0.0209351   c-0.019043,0.048645-0.0224609,0.0984497-0.0258179,0.1479492c-0.0004883,0.0070801-0.0033569,0.0135498-0.0036011,0.0206299   c-0.0016479,0.0646973,0.0090332,0.1271362,0.031311,0.1865234c0.0007324,0.0020752,0.0002441,0.0041504,0.0010376,0.0062256   l0.0009155,0.0023193c0.0037842,0.0094604,0.0062866,0.0188599,0.0106201,0.0280762l0.7611694,2.0003052l-3.3660278,0.9446411   c-0.0679321-0.1331177-0.1353149-0.2594604-0.2006226-0.380127l-0.1044922-0.1938477   c-0.0427856-0.0808716-0.147522-0.2644653-0.2946167-0.5181885l2.7868042-0.192749   c0.1376953-0.0097656,0.2412109-0.1289063,0.2314453-0.2666016c-0.0087891-0.1376953-0.1240234-0.2402344-0.2666016-0.2324219   l-3.0326538,0.2097778c-0.0552368-0.0942993-0.1200562-0.2044678-0.1809692-0.3082275l2.979248-0.2062378   c0.1376953-0.0097656,0.2412109-0.1289063,0.2314453-0.2666016c-0.0087891-0.1376953-0.1279297-0.2338867-0.2666016-0.2324219   l-3.2276001,0.2233887c-0.057312-0.097229-0.1140137-0.1932983-0.1741333-0.2952271l3.168335-0.2323608   c0.1376953-0.0102539,0.2412109-0.1298828,0.2304688-0.2675781c-0.0107422-0.1381836-0.1142578-0.2431641-0.2675781-0.2314453   l-3.4153442,0.2504272c-0.0636597-0.107666-0.124939-0.2113647-0.1904297-0.3220215l3.3713989-0.2330933   c0.1376953-0.0097656,0.2412109-0.1289063,0.2314453-0.2666016c-0.0087891-0.1376953-0.1240234-0.2333984-0.2666016-0.2324219   l-3.6216431,0.2503662c-0.0609741-0.1028442-0.1208496-0.2039795-0.1824951-0.3079224l3.5697403-0.2466431   c0.1377182-0.0097656,0.2412338-0.1289063,0.2314682-0.2666016c-0.0087891-0.1376953-0.1279297-0.2392578-0.2666016-0.2324219   L84.8319092,67.93927c-0.0611572-0.1030884-0.1216431-0.2050171-0.1827393-0.3079224l3.7678223-0.2607422   c0.1376953-0.0097656,0.2412109-0.1289063,0.2314453-0.2666016c-0.0087891-0.137207-0.1191406-0.2446289-0.2666016-0.2324219   l-4.0187988,0.2781372c-0.0618286-0.1040649-0.1222534-0.2058105-0.1832275-0.3083496l3.9676514-0.2739868   c0.1376953-0.0097656,0.2412109-0.1289063,0.2314453-0.2666016c-0.0087891-0.1376953-0.1230469-0.2387695-0.2666016-0.2324219   l-4.2188721,0.2913818c-0.3745728-0.6297607-0.7124023-1.1972656-0.9852295-1.6552124l4.0976563,1.0498657   c0.0419922,0.0107422,0.0830078,0.015625,0.1240234,0.015625c0.0098877,0,0.0171509-0.0085449,0.0269775-0.0091553   c0.0893555-0.0045166,0.1691895-0.0357056,0.2405396-0.081543c0.0178223-0.0115356,0.0342407-0.0192871,0.0504761-0.03302   c0.0122681-0.0100708,0.0261841-0.0171509,0.0374146-0.0283813l1.546936,0.392334L90.2526855,69.2072144z M87.795166,73.131958   l3.2526245-0.9129028c0.0097656,0.1288452,0.0216675,0.2872925,0.0349121,0.4686279l-3.1367188,0.8250732   C87.8959961,73.3764038,87.8457031,73.2490845,87.795166,73.131958z M60.4804688,58.8500977l0.0897217-0.0004272   c-3.6908569,3.7741089-13.0322876,14.215271-14.0955811,15.4052124l-2.2001953-0.5   c6.1259766-7.0549316,12.6243286-13.8881836,14.0604858-15.3903809l1.0664673,0.3190918L60.4804688,58.8500977z    M38.2626953,7.3935547l0.7324219-0.1669922c0.6474609-0.1489258,1.5361328-0.3530273,1.6962891-0.3618164   c0.0029297,0,0.2714844,0.0366211,0.2714844,0.2607422c0,0.5386963,0.7698975,44.4750366,0.8456421,48.8247681   c-0.6002197-0.03302-1.0985718-0.050354-1.4784546-0.050354c-0.6015625,0-1.2431641,0.2539063-2.5205078,0.7597656   c-0.0489502,0.0193481-0.1045532,0.0413208-0.1554565,0.0614624C37.6420898,51.9090576,37.5395508,10.722168,37.53125,7.581543   C37.6494141,7.5424805,37.8662109,7.4829102,38.2626953,7.3935547z M24.8203125,61.2280273   c0.4794922-0.2099609,6.8818359-3.0209961,7.4013672-3.2504883l0.15625-0.0698242   c0.6015625-0.2695313,0.7001953-0.28125,1.7041016-0.2255859c0.2418213,0.0135498,0.5465088,0.0292969,0.8845825,0.0440674   l-10.484436,3.8383179C24.5722656,61.3393555,24.6397095,61.3088379,24.8203125,61.2280273z M21.6054688,63.8310547   c0.4941406-0.5595703,0.8183594-0.7587891,1.2304688-0.9326172l1.1025391-0.3408203   c0.1582031-0.0493164,0.2822266-0.1738281,0.3300781-0.3325195c0.0064087-0.0211792,0.0109863-0.0358887,0.0170898-0.0560303   l12.0328369-4.4050903c0.2017822,0.0028076,0.4001465,0.0060425,0.6219482,0.0060425   c0.248291,0,0.4448853-0.1838379,0.4840698-0.4208984c0.2015991-0.0791626,0.394165-0.1551514,0.5696411-0.2246094   c1.2177734-0.4824219,1.8300781-0.7246094,2.3359375-0.7246094c0.3892212,0,0.9110718,0.019104,1.5422363,0.0549316   c0.007019,0.013916,0.0177612,0.0249634,0.0259399,0.0380249c0.0172119,0.0272827,0.0315552,0.0552368,0.0536499,0.0786743   c0.0245972,0.0264893,0.0547485,0.0448608,0.0845337,0.0652466c0.0231323,0.0158691,0.0437622,0.0336304,0.0696411,0.0455322   c0.0264893,0.0119629,0.0554199,0.0158691,0.0842285,0.0227051c0.0305176,0.0079956,0.0582886,0.0223999,0.0909424,0.0244751   c4.538147,0.2891235,13.1112671,1.2891846,15.4345703,1.5601196c-1.8650513,1.9550171-8.1864624,8.6323853-14.0927734,15.453064   c-0.0566406,0.0664063-0.0751953,0.1582031-0.0478516,0.2416992c0.0273438,0.0830078,0.0966797,0.1459961,0.1816406,0.1655273   l2.75,0.625c0.0185547,0.0043945,0.0371094,0.0063477,0.0556412,0.0063477c0.0703354,0,0.1386948-0.0297852,0.1865463-0.0834961   c0.1126709-0.1259155,10.9520264-12.2633667,14.5268555-15.8516846l0.0766602-0.0003662   c7.1914063,0.9750977,17.6142578,3.425293,19.2285156,3.8095703l0.8427734,1.5087891   c0.0003662,0.0006714,0.0010986,0.0010376,0.0014648,0.001709c0.0022583,0.0039673,0.0020142,0.0084839,0.0043945,0.0124512   c0.046875,0.0771484,4.6181641,7.7412109,4.9619141,8.3901367L86.5,72.769043   c0.0747681,0.1383667,0.1484985,0.2755127,0.2211914,0.4207764L70.0849609,91.0961914   c-1.6289063-0.4130859-16.6787109-4.2026367-32.2050781-7.175293c-14.2209473-2.722229-27.1016235-4.8120728-30.3185425-5.3264771   C9.9815674,76.0582275,21.1229248,64.3853149,21.6054688,63.8310547z M69.6347656,92.9082031   c-0.5283203,0.2519531-1.1357422,0.2939453-1.9111328,0.1323242c-0.2978516-0.0625-49.6396484-9.9589844-51.2226563-10.2524414   c-1.3173828-0.2436523-1.3876953-0.2636719-1.8818359-0.5375977c-0.4671631-0.253418-4.9393311-2.2647705-6.829895-3.112854   c3.6694946,0.5888062,16.2047729,2.6342773,29.9968872,5.2744751c16.236084,3.1085815,31.9432983,7.1089478,32.3065186,7.2017822   c0.0263672,0.008728,0.7079468,0.2387695,1.4308472,0.5164795C70.8550415,92.3901367,70.0504761,92.7176514,69.6347656,92.9082031z    M87.5869141,81.6713867c-0.5126953,0.3349609-5.3417969,3.6293945-9.2216797,6.2758789   c-2.2509766,1.5356445-4.1005859,2.7973633-4.3857422,2.9887695c-0.78125,0.527832-1.1083984,0.7070313-1.5927734,0.8710938   c-0.0469971,0.0162354-0.109436,0.0391235-0.1685181,0.0605469c-0.583252-0.2398071-1.2172241-0.4680786-1.6063232-0.6040039   l16.3322754-17.578064c0.1544189,0.3859253,0.3021851,0.8661499,0.4406128,1.5585327   c0.3251953,1.6259766,0.6445313,3.2836914,0.7753906,4.3925781c0.0024414,0.0213013,0.0133057,0.0387573,0.0183105,0.059082   c0.0013428,0.0056152-0.0022583,0.0109863-0.0007324,0.0166016C88.3310547,80.269043,88.1796875,81.2836914,87.5869141,81.6713867z    M90.5488281,77.7573242c-0.1799316,0.093811-0.7408447,0.4476929-1.5089722,0.9620972   c-0.1626587-1.0617065-0.414856-2.3718262-0.6746216-3.6715698c-0.0418091-0.2091064-0.0852661-0.3986206-0.1295776-0.5776978   l2.9177856-0.7675171c0.0639038,0.9577026,0.1268311,2.0446167,0.1268311,2.6274414   C91.2802734,77.3388672,90.5703125,77.7460938,90.5488281,77.7573242z M92.2451172,47.8486328   C92.0458984,61.125,91.9238281,69.2695313,91.9199219,69.4316406c-0.0568237-0.0090332-0.2050171-0.0558472-0.3835449-0.1168823   c0.281189-0.7877197,0.2695313-1.9180298-0.2209473-2.7654419c-0.6484375-1.1196289-1.9970703-1.2456055-2.0546875-1.2504883   c0,0-0.6607666-0.0557251-1.0568848-0.0143433l0,0l-0.5664063-0.1435547   c0.0966797-2.9544067,1.7335205-53.0587769,1.7297363-53.5774536c0.1083984-0.1020508,0.7490234-0.3027344,0.9589844-0.3686523   c0.6875-0.2158203,1.7255859-0.5419922,1.9560547-0.5419922c0.5117188,0,0.5117188,0.1796875,0.5117188,0.2763672   C92.7939453,11.347168,92.4902344,31.5864258,92.2451172,47.8486328z"></path></g></svg>