<svg xmlns:dc="http://purl.org/dc/elements/1.1/" xmlns:cc="http://creativecommons.org/ns#" xmlns:rdf="http://www.w3.org/1999/02/22-rdf-syntax-ns#" xmlns:svg="http://www.w3.org/2000/svg" xmlns="http://www.w3.org/2000/svg" xmlns:sodipodi="http://sodipodi.sourceforge.net/DTD/sodipodi-0.dtd" xmlns:inkscape="http://www.inkscape.org/namespaces/inkscape" version="1.1" x="0px" y="0px" viewBox="0 0 100 100"><g transform="translate(0,-952.36218)"><path style="text-indent:0;text-transform:none;direction:ltr;block-progression:tb;baseline-shift:baseline;color:#000000;enable-background:accumulate;" d="m 18,956.36215 0,2 4,0 0,-2 z m 10,0 0,2 4,0 0,-2 z m 10,0 0,2 4,0 0,-2 z m 10,0 0,2 4,0 0,-2 z m 10,0 0,2 4,0 0,-2 z m 10,0 0,2 4,0 0,-2 z m 10,0 0,2 4,0 0,-2 z m -60,3 0,6 4,0 0,-6 z m 10,0 0,6 4,0 0,-6 z m 10,0 0,6 4,0 0,-6 z m 10,0 0,6 4,0 0,-6 z m 10,0 0,6 4,0 0,-6 z m 10,0 0,6 4,0 0,-6 z m 10,0 0,6 4,0 0,-6 z m -62.1875,7 c -0.983168,0.0927 -1.816758,1.01248 -1.8125,2 l 0,68.00005 c 1.05e-4,1.0472 0.952831,1.9999 2,2 l 68,0 c 1.047169,-10e-5 1.999899,-0.9528 2,-2 l 0,-68.00005 c -1.01e-4,-1.04718 -0.952831,-1.9999 -2,-2 -22.72523,0 -45.475497,0 -68.1875,0 z m -11.8125005,4 0,4 2,0 0,-4 z m 3,0 0,4 6.0000005,0 0,-4 z m 11.0000005,0 64,0 0,64.00005 -64,0 z m 69,0 0,4 6,0 0,-4 z m 7,0 0,4 2,0 0,-4 z m -67.1875,6.99997 c -0.983168,0.093 -1.816759,1.0125 -1.8125,2 l 0,46.00008 c 1.04e-4,1.0472 0.952831,1.9999 2,2 l 46,0 c 1.047169,-10e-5 1.999899,-0.9528 2,-2 l 0,-46.00008 c -1.01e-4,-1.0471 -0.952831,-1.9999 -2,-2 -15.39155,0 -30.80932,0 -46.1875,0 z m -22.8125005,3 0,4 2,0 0,-4 z m 3,0 0,4 6.0000005,0 0,-4 z m 80.0000005,0 0,4 6,0 0,-4 z m 7,0 0,4 2,0 0,-4 z m -65,1 42,0 0,42.00008 -42,0 z m 21,3 -9,16.99998 -9,2 10,1.0001 6,-8.00008 2,24.00008 9,-17.0001 9,0 -10,-2 -5,6.0001 z m -46.0000005,6 0,4 2,0 0,-4 z m 3,0 0,4 6.0000005,0 0,-4 z m 80.0000005,0 0,4 6,0 0,-4 z m 7,0 0,4 2,0 0,-4 z m -90.0000005,9.99998 0,4.0001 2,0 0,-4.0001 z m 3,0 0,4.0001 6.0000005,0 0,-4.0001 z m 80.0000005,0 0,4.0001 6,0 0,-4.0001 z m 7,0 0,4.0001 2,0 0,-4.0001 z m -90.0000005,10.0001 0,4 2,0 0,-4 z m 3,0 0,4 6.0000005,0 0,-4 z m 80.0000005,0 0,4 6,0 0,-4 z m 7,0 0,4 2,0 0,-4 z m -90.0000005,10 0,4 2,0 0,-4 z m 3,0 0,4 6.0000005,0 0,-4 z m 80.0000005,0 0,4 6,0 0,-4 z m 7,0 0,4 2,0 0,-4 z m -90.0000005,10 0,4 2,0 0,-4 z m 3,0 0,4 6.0000005,0 0,-4 z m 80.0000005,0 0,4 6,0 0,-4 z m 7,0 0,4 2,0 0,-4 z m -76,9 0,6 4,0 0,-6 z m 10,0 0,6 4,0 0,-6 z m 10,0 0,6 4,0 0,-6 z m 10,0 0,6 4,0 0,-6 z m 10,0 0,6 4,0 0,-6 z m 10,0 0,6 4,0 0,-6 z m 10,0 0,6 4,0 0,-6 z m -60,7 0,2 4,0 0,-2 z m 10,0 0,2 4,0 0,-2 z m 10,0 0,2 4,0 0,-2 z m 10,0 0,2 4,0 0,-2 z m 10,0 0,2 4,0 0,-2 z m 10,0 0,2 4,0 0,-2 z m 10,0 0,2 4,0 0,-2 z" fill="#000000" fill-opacity="1" stroke="none" marker="none" visibility="visible" display="inline" overflow="visible"></path></g></svg>