<?xml version="1.0" encoding="utf-8"?>
<!-- Svg Vector Icons : http://www.onlinewebfonts.com/icon -->
<!DOCTYPE svg PUBLIC "-//W3C//DTD SVG 1.1//EN" "http://www.w3.org/Graphics/SVG/1.1/DTD/svg11.dtd">
<svg version="1.1" xmlns="http://www.w3.org/2000/svg" xmlns:xlink="http://www.w3.org/1999/xlink" x="0px" y="0px" viewBox="0 0 1000 1000" enable-background="new 0 0 1000 1000" xml:space="preserve">
<metadata> Svg Vector Icons : http://www.onlinewebfonts.com/icon </metadata>
<g><path d="M931.1,683.7H68.8C36.3,683.7,10,710,10,742.4v188.6c0,32.5,26.3,58.8,58.8,58.8h862.3c32.5,0,58.9-26.3,58.9-58.8V742.4C989.9,710,963.7,683.7,931.1,683.7L931.1,683.7z M922.4,928.6h-852V744.9h852V928.6L922.4,928.6z M132.4,806.1h61.2v61.2h-61.2V806.1L132.4,806.1z M254.8,806.1H316v61.2h-61.2V806.1L254.8,806.1z M377.2,806.1h61.2v61.2h-61.2V806.1L377.2,806.1z M805.7,697.7c0,16.9,13.8,30.6,30.6,30.6l0,0c16.9,0,30.5-13.8,30.5-30.6V40.9c0-16.9-13.7-30.6-30.5-30.6l0,0c-16.9,0-30.6,13.7-30.6,30.6V697.7L805.7,697.7z"/></g>
</svg>