<?xml version="1.0" encoding="iso-8859-1"?>
<!-- Generator: Adobe Illustrator 19.0.0, SVG Export Plug-In . SVG Version: 6.00 Build 0)  -->
<svg version="1.1" id="Layer_1" xmlns="http://www.w3.org/2000/svg" xmlns:xlink="http://www.w3.org/1999/xlink" x="0px" y="0px"
	 viewBox="0 0 512 512" style="enable-background:new 0 0 512 512;" xml:space="preserve">
<g>
	<g>
		<path d="M511.719,433.807c0.004-0.317-0.011-0.634-0.044-0.949l-44.342-155.192c-4.494-14.914-16.854-26.128-32.133-29.153V230.4
			c-0.012-9.421-7.646-17.054-17.067-17.067h-5.866l6.93-19.035l8.019,2.918c4.421,1.614,9.313-0.662,10.927-5.083
			c0.002-0.006,0.004-0.011,0.006-0.017l46.7-128.3c3.67-10.172,0.538-21.552-7.82-28.414l6.378-17.519
			c1.607-4.429-0.68-9.322-5.108-10.929c-4.424-1.606-9.313,0.675-10.925,5.096l-6.37,17.496
			c-10.846-0.198-20.61,6.547-24.264,16.761l-46.7,128.3c-1.614,4.421,0.661,9.313,5.082,10.927
			c0.006,0.002,0.012,0.004,0.018,0.007l8.023,2.92l-8.757,24.055c-0.055,0.27-0.097,0.542-0.124,0.817H384
			c-9.421,0.012-17.054,7.646-17.067,17.067v17.067h-76.8V230.4c-0.012-9.421-7.646-17.054-17.067-17.067h-8.533v-17.067h8.533
			c4.71,0.003,8.531-3.813,8.533-8.523c0-0.003,0-0.007,0-0.01V51.2c-0.033-10.813-6.868-20.435-17.067-24.028V8.533
			C264.533,3.82,260.713,0,256,0s-8.533,3.82-8.533,8.533v18.639C237.268,30.765,230.433,40.387,230.4,51.2v136.533
			c-0.003,4.71,3.813,8.531,8.523,8.533c0.003,0,0.007,0,0.01,0h8.533v17.067h-8.533c-9.421,0.012-17.054,7.646-17.067,17.067
			v17.067h-76.8V230.4c-0.012-9.421-7.646-17.054-17.067-17.067h-10.284c-0.027-0.274-0.068-0.547-0.124-0.817l-8.757-24.055
			l8.023-2.92c4.424-1.604,6.711-6.491,5.107-10.915c-0.002-0.006-0.004-0.012-0.007-0.018l-46.7-128.3
			c-3.654-10.214-13.417-16.959-24.263-16.762l-6.37-17.497c-1.614-4.426-6.511-6.706-10.937-5.092
			c-4.422,1.612-6.702,6.501-5.096,10.925l6.378,17.519c-8.357,6.862-11.489,18.242-7.819,28.414l46.7,128.3
			c1.604,4.424,6.492,6.711,10.916,5.106c0.006-0.002,0.011-0.004,0.017-0.006l8.019-2.918l6.93,19.035h-5.866
			c-9.421,0.012-17.054,7.646-17.067,17.067v18.114c-15.279,3.026-27.64,14.24-32.133,29.153L0.325,432.858
			c-0.033,0.316-0.048,0.633-0.044,0.951c-0.134,0.455-0.228,0.92-0.281,1.391v51.2c0.015,14.132,11.468,25.585,25.6,25.6h460.8
			c14.132-0.015,25.585-11.468,25.6-25.6v-51.2C511.948,434.728,511.854,434.262,511.719,433.807z M452.775,52.142
			c1.613-4.43,6.512-6.713,10.942-5.1c4.43,1.613,6.713,6.512,5.1,10.942l-43.783,120.283l-16.042-5.842L452.775,52.142z
			 M418.133,230.4v17.067h-34.142l-0.009-17.067H418.133z M247.467,51.2c0-4.713,3.82-8.533,8.533-8.533s8.533,3.82,8.533,8.533v128
			h-17.067V51.2z M238.933,230.4h34.133v17.067h-34.133V230.4z M86.967,178.267L43.183,57.983c-1.613-4.43,0.671-9.328,5.1-10.942
			c0.938-0.339,1.928-0.514,2.925-0.517c3.586,0.004,6.788,2.247,8.017,5.617l43.783,120.283L86.967,178.267z M93.867,230.4H128
			v17.067H93.867V230.4z M61.083,282.35c3.375-10.767,13.443-18.022,24.725-17.817h340.383c11.282-0.206,21.35,7.049,24.725,17.817
			l41.233,144.317H19.85L61.083,282.35z M145.067,494.933H59.733v-17.067h85.333V494.933z M221.867,494.933h-25.6v-17.067h25.6
			V494.933z M298.667,494.933h-25.6v-17.067h25.6V494.933z M375.467,494.933h-25.6v-17.067h25.6V494.933z M494.933,486.4
			c-0.003,4.711-3.822,8.53-8.533,8.533h-93.867v-25.6c0.003-4.71-3.813-8.531-8.523-8.533c-0.003,0-0.007,0-0.01,0h-42.667
			c-4.71-0.003-8.531,3.813-8.533,8.523c0,0.003,0,0.007,0,0.01v25.6h-17.067v-25.6c0.003-4.71-3.813-8.531-8.523-8.533
			c-0.003,0-0.007,0-0.01,0h-42.667c-4.71-0.003-8.531,3.813-8.533,8.523c0,0.003,0,0.007,0,0.01v25.6h-17.067v-25.6
			c0.003-4.71-3.813-8.531-8.523-8.533c-0.003,0-0.007,0-0.01,0h-42.667c-4.71-0.003-8.531,3.813-8.533,8.523
			c0,0.003,0,0.007,0,0.01v25.6h-17.067v-25.6c0.003-4.71-3.813-8.531-8.523-8.533c-0.003,0-0.007,0-0.01,0H51.2
			c-4.71-0.003-8.531,3.813-8.533,8.523c0,0.003,0,0.007,0,0.01v25.6H25.6c-4.711-0.003-8.53-3.822-8.533-8.533v-42.667h477.867
			V486.4z"/>
	</g>
</g>
<g>
	<g>
		<path d="M418.133,290.133H307.2c-4.713,0-8.533,3.82-8.533,8.533s3.82,8.533,8.533,8.533h110.933c4.713,0,8.533-3.82,8.533-8.533
			S422.846,290.133,418.133,290.133z"/>
	</g>
</g>
<g>
	<g>
		<path d="M426.667,324.267H307.2c-4.713,0-8.533,3.821-8.533,8.533c0,4.713,3.82,8.533,8.533,8.533h119.467
			c4.713,0,8.533-3.821,8.533-8.533C435.2,328.087,431.38,324.267,426.667,324.267z"/>
	</g>
</g>
<g>
	<g>
		<path d="M435.2,358.4h-128c-4.713,0-8.533,3.82-8.533,8.533s3.82,8.533,8.533,8.533h128c4.713,0,8.533-3.82,8.533-8.533
			S439.913,358.4,435.2,358.4z"/>
	</g>
</g>
<g>
	<g>
		<path d="M443.733,392.533H307.2c-4.713,0-8.533,3.821-8.533,8.533s3.82,8.533,8.533,8.533h136.533c4.713,0,8.533-3.82,8.533-8.533
			S448.446,392.533,443.733,392.533z"/>
	</g>
</g>
<g>
</g>
<g>
</g>
<g>
</g>
<g>
</g>
<g>
</g>
<g>
</g>
<g>
</g>
<g>
</g>
<g>
</g>
<g>
</g>
<g>
</g>
<g>
</g>
<g>
</g>
<g>
</g>
<g>
</g>
</svg>
