<svg height='300px' width='300px'  fill="#000000" xmlns="http://www.w3.org/2000/svg" xmlns:xlink="http://www.w3.org/1999/xlink" version="1.1" x="0px" y="0px" viewBox="0 0 512 512" enable-background="new 0 0 512 512" xml:space="preserve"><g><g><path d="M69.4,218.2h158.9c7.8,0,14.1-6.3,14.1-14.1c0-7.8-6.3-14.1-14.1-14.1H69.4c-7.8,0-14.1,6.3-14.1,14.1    C55.3,211.8,61.6,218.2,69.4,218.2z"></path><path d="M69.4,294h91.9c7.8,0,14.1-6.3,14.1-14.1c0-7.8-6.3-14.1-14.1-14.1H69.4c-7.8,0-14.1,6.3-14.1,14.1    C55.3,287.7,61.6,294,69.4,294z"></path><path d="M69.4,369.9h91.9c7.8,0,14.1-6.3,14.1-14.1s-6.3-14.1-14.1-14.1H69.4c-7.8,0-14.1,6.3-14.1,14.1S61.6,369.9,69.4,369.9z"></path><path d="M228.3,417.5H69.4c-7.8,0-14.1,6.3-14.1,14.1c0,7.8,6.3,14.1,14.1,14.1h158.9c7.8,0,14.1-6.3,14.1-14.1    C242.5,423.8,236.1,417.5,228.3,417.5z"></path><path d="M498.1,440.4l-64-64c7.4-15.6,11.7-33.1,11.7-51.5c0-59.6-43.4-109.2-100.3-119v-110c0-7.8-6.3-14.1-14.1-14.1h-66.4V60    c0-7.8-6.3-14.1-14.1-14.1h-23.7v-3.1c0-22.5-18.3-40.8-40.8-40.8H161c-22.5,0-40.8,18.3-40.8,40.8v3.1H96.6    c-7.8,0-14.1,6.3-14.1,14.1v21.8H16.1C8.3,81.7,2,88,2,95.8v400.1c0,7.8,6.3,14.1,14.1,14.1h315.2c7.8,0,14.1-6.3,14.1-14.1v-52    c10.9-1.9,21.3-5.2,31-9.8l64,64c15.9,15.9,41.8,15.9,57.6,0C514,482.1,514,456.3,498.1,440.4z M417.5,324.9    c0,51.1-41.6,92.7-92.7,92.7s-92.7-41.6-92.7-92.7s41.6-92.7,92.7-92.7S417.5,273.8,417.5,324.9z M148.5,42.8    c0-6.9,5.6-12.5,12.5-12.5h25.3c6.9,0,12.5,5.6,12.5,12.5v3.1h-50.4V42.8z M110.7,74.1h126v43.5h-126V74.1z M30.2,481.8V109.9    h52.3v21.8c0,7.8,6.3,14.1,14.1,14.1h154.2c7.8,0,14.1-6.3,14.1-14.1v-21.8h52.3v94.4c-63.1,4-113.2,56.4-113.2,120.5    s50.1,116.5,113.2,120.5v36.4H30.2z M478.1,478.1c-4.9,4.9-12.8,4.9-17.7,0L401,418.7c6.5-5.3,12.4-11.2,17.7-17.7l59.4,59.4    C483,465.2,483,473.2,478.1,478.1z"></path></g></g></svg>