<svg xmlns="http://www.w3.org/2000/svg" xmlns:xlink="http://www.w3.org/1999/xlink" viewBox="0 0 100 100" version="1.1" x="0px" y="0px"><title>wifi-speed</title><desc>Created with Sketch.</desc><g stroke="none" stroke-width="1" fill="none" fill-rule="evenodd"><path d="M51.7765,77.387 C50.4175,78.745 48.6105,79.494 46.6885,79.494 C44.7665,79.494 42.9605,78.745 41.6005,77.387 C38.7965,74.581 38.7965,70.016 41.6005,67.211 C42.9595,65.853 44.7665,65.105 46.6885,65.105 C48.6105,65.105 50.4175,65.853 51.7765,67.21 C54.5815,70.016 54.5815,74.581 51.7765,77.387 M92.9285,26.06 C92.1475,25.279 90.8815,25.279 90.1005,26.06 L84.3415,31.819 C74.0785,22.254 60.7905,17 46.6885,17 C31.9175,17 18.0305,22.752 7.5865,33.198 C6.8045,33.979 6.8045,35.244 7.5865,36.026 C8.3675,36.807 9.6325,36.807 10.4145,36.026 C20.1035,26.336 32.9855,21 46.6885,21 C59.7215,21 72.0065,25.837 81.5135,34.647 L73.0345,43.126 C57.6235,29.192 33.7455,29.651 18.8915,44.503 C18.1105,45.283 18.1105,46.55 18.8915,47.331 C19.6725,48.113 20.9385,48.113 21.7195,47.331 C35.0135,34.04 56.3525,33.586 70.1995,45.961 L61.6635,54.497 C57.4745,50.961 52.2325,49.025 46.6875,49.025 C40.4705,49.025 34.6265,51.446 30.2305,55.842 C29.4495,56.623 29.4495,57.889 30.2305,58.67 C31.0115,59.451 32.2775,59.451 33.0585,58.67 C36.6995,55.03 41.5395,53.025 46.6875,53.025 C51.1635,53.025 55.4045,54.543 58.8295,57.332 L53.0605,63.1 C51.2015,61.807 49.0005,61.105 46.6885,61.105 C43.6985,61.105 40.8865,62.268 38.7725,64.382 C34.4085,68.747 34.4085,75.85 38.7725,80.215 C40.8865,82.329 43.6985,83.494 46.6885,83.494 C49.6775,83.494 52.4895,82.329 54.6055,80.215 C58.4855,76.333 58.9055,70.292 55.8855,65.931 L92.9285,28.888 C93.7105,28.107 93.7105,26.841 92.9285,26.06" fill="#000000"></path></g></svg>