<svg xmlns:dc="http://purl.org/dc/elements/1.1/" xmlns:cc="http://creativecommons.org/ns#" xmlns:rdf="http://www.w3.org/1999/02/22-rdf-syntax-ns#" xmlns:svg="http://www.w3.org/2000/svg" xmlns="http://www.w3.org/2000/svg" xmlns:sodipodi="http://sodipodi.sourceforge.net/DTD/sodipodi-0.dtd" xmlns:inkscape="http://www.inkscape.org/namespaces/inkscape" version="1.1" x="0px" y="0px" viewBox="0 0 100 100"><g transform="translate(0,-952.36218)"><path style="text-indent:0;text-transform:none;direction:ltr;block-progression:tb;baseline-shift:baseline;color:#000000;enable-background:accumulate;" d="m 18,956.36215 0,2 4,0 0,-2 z m 10,0 0,2 4,0 0,-2 z m 10,0 0,2 4,0 0,-2 z m 10,0 0,2 4,0 0,-2 z m 10,0 0,2 4,0 0,-2 z m 10,0 0,2 4,0 0,-2 z m 10,0 0,2 4,0 0,-2 z m -59,3 0,6 2,0 0,-6 z m 10,0 0,6 2,0 0,-6 z m 10,0 0,6 2,0 0,-6 z m 10,0 0,6 2,0 0,-6 z m 10,0 0,6 2,0 0,-6 z m 10,0 0,6 2,0 0,-6 z m 10,0 0,6 2,0 0,-6 z m -63.1875,8 c -0.4584,0.0875 -0.82072,0.5334 -0.8125,1 l 0,68.00005 c 5e-5,0.5236 0.47642,0.9999 1,1 l 68,0 c 0.523579,-10e-5 0.999949,-0.4764 1,-1 l 0,-68.00005 c -5.1e-5,-0.52358 -0.476421,-0.99995 -1,-1 -22.725111,0 -45.476031,0 -68.1875,0 z m 1.1875,2 66,0 0,66.00005 -66,0 z m -13.0000005,1 0,4 2,0 0,-4 z m 90.0000005,0 0,4 2,0 0,-4 z m -87.0000005,1 0,2 6.0000005,0 0,-2 z m 80.0000005,0 0,2 6,0 0,-2 z m -60.1875,6.99997 c -0.4584,0.087 -0.820721,0.5334 -0.8125,1 l 0,46.00008 c 5e-5,0.5236 0.476419,0.9999 1,1 l 46,0 c 0.523579,-10e-5 0.999949,-0.4764 1,-1 l 0,-46.00008 c -5.1e-5,-0.5235 -0.476421,-0.9999 -1,-1 -15.39142,0 -30.80985,0 -46.1875,0 z m -22.8125005,2 0,4 2,0 0,-4 z m 24.0000005,0 44,0 0,44.00008 -44,0 z m 66,0 0,4 2,0 0,-4 z m -87.0000005,1 0,2 6.0000005,0 0,-2 z m 80.0000005,0 0,2 6,0 0,-2 z m -37,3 -9,16.99998 -9,2 10,1.0001 6,-8.00008 2,24.00008 9,-17.0001 9,0 -10,-2 -5,6.0001 z m -46.0000005,6 0,4 2,0 0,-4 z m 90.0000005,0 0,4 2,0 0,-4 z m -87.0000005,1 0,2 6.0000005,0 0,-2 z m 80.0000005,0 0,2 6,0 0,-2 z m -83.0000005,8.99998 0,4.0001 2,0 0,-4.0001 z m 90.0000005,0 0,4.0001 2,0 0,-4.0001 z m -87.0000005,1 0,2 6.0000005,0 0,-2 z m 80.0000005,0 0,2 6,0 0,-2 z m -83.0000005,9.0001 0,4 2,0 0,-4 z m 90.0000005,0 0,4 2,0 0,-4 z m -87.0000005,1 0,2 6.0000005,0 0,-2 z m 80.0000005,0 0,2 6,0 0,-2 z m -83.0000005,9 0,4 2,0 0,-4 z m 90.0000005,0 0,4 2,0 0,-4 z m -87.0000005,1 0,2 6.0000005,0 0,-2 z m 80.0000005,0 0,2 6,0 0,-2 z m -83.0000005,9 0,4 2,0 0,-4 z m 90.0000005,0 0,4 2,0 0,-4 z m -87.0000005,1 0,2 6.0000005,0 0,-2 z m 80.0000005,0 0,2 6,0 0,-2 z m -68,8 0,6 2,0 0,-6 z m 10,0 0,6 2,0 0,-6 z m 10,0 0,6 2,0 0,-6 z m 10,0 0,6 2,0 0,-6 z m 10,0 0,6 2,0 0,-6 z m 10,0 0,6 2,0 0,-6 z m 10,0 0,6 2,0 0,-6 z m -61,7 0,2 4,0 0,-2 z m 10,0 0,2 4,0 0,-2 z m 10,0 0,2 4,0 0,-2 z m 10,0 0,2 4,0 0,-2 z m 10,0 0,2 4,0 0,-2 z m 10,0 0,2 4,0 0,-2 z m 10,0 0,2 4,0 0,-2 z" fill="#000000" fill-opacity="1" stroke="none" marker="none" visibility="visible" display="inline" overflow="visible"></path></g></svg>