<svg xmlns="http://www.w3.org/2000/svg" xmlns:xlink="http://www.w3.org/1999/xlink" version="1.1" x="0px" y="0px" viewBox="0 0 100 100" enable-background="new 0 0 100 100" xml:space="preserve"><g><path d="M48.575,51.013c-0.146-0.062-0.315-0.031-0.428,0.079L28.213,70.339c-0.077,0.074-0.121,0.177-0.121,0.284v22.592   c0,0.218,0.177,0.395,0.395,0.395h19.934c0.218,0,0.395-0.177,0.395-0.395V51.376C48.816,51.218,48.721,51.075,48.575,51.013z"></path><path d="M25.483,73.309c-0.146-0.062-0.314-0.03-0.428,0.079L5.121,92.635C5.044,92.709,5,92.811,5,92.919v0.296   c0,0.218,0.177,0.395,0.395,0.395h19.934c0.218,0,0.395-0.177,0.395-0.395V73.672C25.724,73.514,25.629,73.371,25.483,73.309z"></path><path d="M94.759,6.422c-0.145-0.062-0.314-0.031-0.428,0.079L74.594,25.557c-0.077,0.074-0.12,0.177-0.12,0.284v67.373   c0,0.218,0.177,0.395,0.395,0.395h19.737c0.218,0,0.395-0.177,0.395-0.395V6.785C95,6.627,94.905,6.484,94.759,6.422z M94.21,92.82   H75.263V26.009L94.21,7.715V92.82z"></path><path d="M71.667,28.718c-0.145-0.062-0.314-0.031-0.428,0.079L51.305,48.044c-0.077,0.074-0.121,0.177-0.121,0.284v44.887   c0,0.218,0.177,0.395,0.395,0.395h19.934c0.218,0,0.395-0.177,0.395-0.395V29.081C71.908,28.923,71.813,28.78,71.667,28.718z    M71.118,92.82H51.974V48.495l19.145-18.484V92.82z"></path></g></svg>