<svg xmlns:dc="http://purl.org/dc/elements/1.1/" xmlns:cc="http://creativecommons.org/ns#" xmlns:rdf="http://www.w3.org/1999/02/22-rdf-syntax-ns#" xmlns:svg="http://www.w3.org/2000/svg" xmlns="http://www.w3.org/2000/svg" xmlns:sodipodi="http://sodipodi.sourceforge.net/DTD/sodipodi-0.dtd" xmlns:inkscape="http://www.inkscape.org/namespaces/inkscape" viewBox="0 0 4.2333332 4.2333336" version="1.1" x="0px" y="0px"><g transform="translate(0,-292.76666)"><g style="" transform="matrix(1.276165,0,0,1.2738786,-1.0467032,-81.223958)" stroke-width="0.78430063"><path style="opacity:1;fill:#000000;fill-opacity:1;stroke:none;stroke-width:1;stroke-linecap:round;stroke-linejoin:miter;stroke-miterlimit:4;stroke-dasharray:none;stroke-opacity:1;paint-order:markers fill stroke" d="m -140.60352,-105.58789 c -1.38572,0 -2.58155,0.77775 -3.21484,1.91016 -2.87194,-0.56379 -5.84028,0.3285 -7.91406,2.39843 a 0.50049862,0.49960192 0 1 0 0.70703,0.70508 c 1.79372,-1.7905 4.34056,-2.57657 6.82812,-2.15039 -0.0629,0.26973 -0.10351,0.54746 -0.10351,0.83594 0,0.24669 0.0259,0.48734 0.0723,0.7207 -2.0444,-0.42819 -4.19203,0.19465 -5.69531,1.695314 a 0.50049862,0.49960192 0 1 0 0.70703,0.705078 c 1.42791,-1.425352 3.54691,-1.902542 5.45118,-1.232422 0.64712,1.07885 1.81647,1.810547 3.1621,1.810547 2.03756,0 3.69924,-1.661638 3.69922,-3.699217 0,-2.03755 -1.66168,-3.69922 -3.69922,-3.69922 z m 0,0.99805 c 1.49711,0 2.70312,1.2041 2.70313,2.70117 10e-6,1.49711 -1.20601,2.70117 -2.70313,2.70117 -1.49711,0 -2.70118,-1.20403 -2.70117,-2.70117 1e-5,-1.49707 1.20407,-2.70117 2.70117,-2.70117 z m -0.0605,0.70117 c -0.3559,0 -0.6503,0.10299 -0.88282,0.30859 -0.2307,0.20389 -0.36216,0.47938 -0.39257,0.82813 l 0.52343,0 c 0.0751,-0.49363 0.32663,-0.74024 0.75586,-0.74024 0.21997,0 0.39922,0.0671 0.53516,0.20117 0.13591,0.13241 0.20313,0.30221 0.20312,0.50782 0,0.10557 -0.0242,0.20408 -0.0742,0.29882 -0.0501,0.0929 -0.17925,0.22893 -0.38672,0.4043 -0.20568,0.17515 -0.34693,0.34038 -0.42383,0.4961 -0.0769,0.1538 -0.11524,0.39584 -0.11524,0.72851 l 0.47266,0 c 0,-0.25214 0.0241,-0.43172 0.0742,-0.53906 0.0501,-0.1091 0.1843,-0.25508 0.4043,-0.4375 0.21998,-0.18248 0.37053,-0.34787 0.44922,-0.49805 0.0805,-0.15015 0.12109,-0.31291 0.12109,-0.48828 0,-0.31118 -0.11712,-0.56726 -0.34961,-0.76758 -0.2325,-0.20208 -0.53669,-0.30273 -0.91406,-0.30273 z m -0.2793,3.44922 0,0.550778 0.54883,0 0,-0.550778 -0.54883,0 z m -4.56641,1.685544 c -0.9478,0 -1.89664,0.358884 -2.61523,1.076172 a 0.50317079,0.5022693 0 1 0 0.7168,0.705078 c 1.05468,-1.052822 2.74218,-1.052822 3.79687,0 a 0.50294916,0.50204806 0 1 0 0.71485,-0.705078 c -0.71859,-0.717288 -1.66548,-1.076172 -2.61329,-1.076172 z m 0,2.410156 a 1.2761651,1.2738787 0 0 0 -1.27734,1.275391 1.2761651,1.2738787 0 0 0 1.27734,1.273437 1.2761651,1.2738787 0 0 0 1.27539,-1.273437 1.2761651,1.2738787 0 0 0 -1.27539,-1.275391 z" transform="matrix(0.2073269,0,0,0.20769902,32.417186,315.95159)"></path></g></g></svg>